<?xml version="1.0" encoding="UTF-8"?><svg xmlns="http://www.w3.org/2000/svg" viewBox="0 0 2000 2000"><defs><style>.cls-1{letter-spacing:.1em;}.cls-2{letter-spacing:.09em;}.cls-3{letter-spacing:.09em;}.cls-4{fill:#000;font-family:MyriadPro-Regular, 'Myriad Pro';font-size:100px;}.cls-5{fill:#231f20;stroke-width:0px;}.cls-6{letter-spacing:.08em;}</style></defs><g id="NOTES"><text class="cls-4" transform="translate(23.19 -46.99)"><tspan class="cls-1" x="0" y="0">PRI</tspan><tspan class="cls-3" x="160.9" y="0">M</tspan><tspan class="cls-1" x="250.3" y="0">A</tspan><tspan class="cls-2" x="321.5" y="0">R</tspan><tspan class="cls-1" x="384.2" y="0">Y I</tspan><tspan class="cls-6" x="513.4" y="0">C</tspan><tspan class="cls-1" x="579.29" y="0">ON</tspan></text></g><g id="_1-COLOR_LOGOS"><path class="cls-5" d="M930.53,1329.31c-152.52,0-276.61-124.09-276.61-276.61s124.09-276.61,276.61-276.61,276.62,124.09,276.62,276.61-124.09,276.61-276.62,276.61ZM930.53,801.49c-138.52,0-251.22,112.69-251.22,251.22s112.69,251.22,251.22,251.22,251.23-112.69,251.23-251.22-112.71-251.22-251.23-251.22Z"/><path class="cls-5" d="M944.46,1481.91c-267.11,0-484.41-196.43-484.41-437.88s217.3-437.88,484.41-437.88,484.41,196.43,484.41,437.88-217.3,437.88-484.41,437.88ZM944.46,631.55c-253.1,0-459.02,185.04-459.02,412.48s205.92,412.48,459.02,412.48,459.02-185.04,459.02-412.48-205.92-412.48-459.02-412.48Z"/><path class="cls-5" d="M929.57,1617.1c-97.12,0-174.82-29.2-216.53-49.13-44.37-21.19-75.13-46.23-136.44-96.1-104.46-85.02-181.97-175.08-224.29-260.6-14.31-28.92-23.14-52.91-28.62-77.81-5.02-22.92-14.27-85.1,8.02-167.68,41.84-154.89,167.13-279.98,208.31-321.09,100.4-100.22,169.72-163.46,285.42-196.41h0c82.16-23.4,175.81-20.53,263.67,8.02,93.82,30.55,166.82,99.03,312.26,235.43,62.19,58.31,84.61,85.08,96.05,100.13,37.47,49.34,107.21,141.15,109.03,259.81,1.59,103.65-50.83,179.28-92.94,240.04-95.36,137.59-224.38,201.32-328.06,252.51-71.07,35.09-117.95,58.23-189.2,68.24-23.04,3.24-45.34,4.64-66.68,4.64ZM832.38,472.71c-112.02,31.91-177.26,92.96-274.43,189.96-39.98,39.92-161.66,161.4-201.71,309.73-20.84,77.17-12.36,134.53-7.75,155.61,5.08,23.09,13.05,44.63,26.59,72,40.71,82.28,115.89,169.44,217.41,252.05,59.88,48.72,89.86,73.11,131.5,93,48.31,23.08,147.41,59.29,268.74,42.26,67.2-9.44,110.18-30.65,181.39-65.81,106.41-52.55,226.9-112.05,318.51-244.25,42.14-60.8,89.89-129.69,88.43-225.19-1.7-110.32-68.15-197.82-103.85-244.82-6.29-8.27-25.38-33.41-93.2-96.99-142.7-133.84-214.33-201.01-302.76-229.8-83.12-27.06-171.48-29.79-248.86-7.75h0Z"/><path class="cls-5" d="M963.86,1752c-4.6,0-9.2-.06-13.85-.17-233.02-5.82-401.95-144.14-474.08-203.21-116.79-95.63-203.1-208.88-256.55-336.62-17.62-42.12-27.29-65.26-33.82-99.1-44.45-230.74,158.75-443.08,256.4-545.13,164.36-171.76,294.21-307.4,491.18-319.17h0c206.3-12.65,383.45,175.31,735.78,549.13,84.22,89.36,159.16,178.93,151.21,292.02-6.49,92.36-65.36,160.86-171.74,254.94-304.56,269.39-460.49,407.3-684.53,407.31ZM934.66,273.95c-187.04,11.16-313.82,143.64-474.33,311.37-94.73,98.98-291.8,304.91-249.81,522.77,6.01,31.27,15.33,53.56,32.25,93.99,51.87,123.98,135.71,233.92,249.26,326.89,70.11,57.41,234.31,191.87,458.62,197.46,221.29,5.53,375.09-130.25,680.93-400.76,101.32-89.62,157.35-154.05,163.24-237.7,7.22-102.83-64.17-187.73-144.36-272.83-346.92-368.06-520.96-552.83-715.79-541.19h0Z"/><path class="cls-5" d="M902.77,1027.72c6.06-7.07,15.21-10.6,27.5-10.6s21.33,3.5,27.64,10.48c6.3,6.98,9.46,15.52,9.46,25.61s-3.2,18.26-9.59,24.98c-6.4,6.73-15.57,10.09-27.51,10.09s-21.24-3.41-27.37-10.22c-6.16-6.82-9.21-15.1-9.21-24.86s3.03-18.42,9.08-25.49Z"/></g></svg>