<?xml version="1.0" encoding="UTF-8"?><svg id="FULL_COLOR_LOGOS" xmlns="http://www.w3.org/2000/svg" viewBox="0 0 2400 2400"><defs><style>.cls-1{fill:#303b4e;stroke-width:0px;}</style></defs><path class="cls-1" d="M218.89,1386.34v-359.26h28.93v55.05h2.11c7.54-17.42,19.99-32.35,37.41-44.85,17.42-12.41,41.17-18.66,71.3-18.66,39.52,0,69.87,11.63,91.06,34.92,21.18,23.25,31.75,57.26,31.75,102.02v230.78h-28.93v-225.86c0-39.57-8.59-68.84-25.76-87.91-17.19-19.02-42-28.58-74.47-28.58-18.36,0-35.43,3.22-51.19,9.56-15.76,6.34-28.58,16.08-38.46,29.27-9.88,13.19-14.82,29.46-14.82,48.71v254.81h-28.93Z"/><path class="cls-1" d="M765.91,1394.8c-31.55,0-58.71-7.26-81.54-21.87-22.82-14.57-40.46-35.84-52.94-63.88-12.45-27.99-18.7-62.22-18.7-102.71s6.25-74.58,18.7-102.34c12.48-27.76,30.12-48.94,52.94-63.51,22.84-14.61,50-21.87,81.54-21.87s58.8,7.26,81.87,21.87c23.05,14.57,40.83,35.75,53.28,63.51,12.48,27.76,18.73,61.85,18.73,102.34s-6.25,74.72-18.73,102.71c-12.45,28.03-30.24,49.31-53.28,63.88-23.07,14.61-50.36,21.87-81.87,21.87ZM765.91,1369.43c38.58,0,68.68-12.59,90.34-37.77,21.62-25.18,32.47-60.11,32.47-104.87v-40.21c0-44.71-10.84-79.64-32.47-104.82-21.67-25.18-51.77-37.77-90.34-37.77s-68.01,12.59-89.65,37.77c-21.64,25.18-32.47,60.11-32.47,104.82v40.21c0,44.76,10.82,79.68,32.47,104.87,21.64,25.18,51.54,37.77,89.65,37.77Z"/><path class="cls-1" d="M1180.94,1394.8c-31.52,0-58.82-7.26-81.87-21.87-23.07-14.57-40.83-35.84-53.31-63.88-12.45-27.99-18.7-62.22-18.7-102.71s6.11-73.98,18.36-101.97c12.22-28.03,29.75-49.31,52.59-63.88,22.82-14.61,50-21.87,81.52-21.87,29.64,0,55.63,7.26,77.98,21.87,22.36,14.57,39.77,35.15,52.25,61.76,12.45,26.56,18.7,57.99,18.7,94.2v13.42h-271.06v18.38c0,42.32,10.94,76.47,32.83,102.29,21.87,25.92,52.57,38.88,92.11,38.88,27.76,0,51.4-6.71,70.93-20.13,19.53-13.42,34.46-33.09,44.83-58.96l21.87,12.73c-10.82,27.76-28.12,50-51.88,66.68-23.76,16.68-52.82,25.04-87.17,25.04ZM1057.42,1186.58h239.99v-4.23c0-28.26-4.94-52.71-14.82-73.39-9.88-20.72-23.64-36.85-41.29-48.34-17.65-11.58-38.23-17.32-61.76-17.32-25.41,0-47.29,5.74-65.64,17.32-18.36,11.49-32.35,27.85-42,49.03-9.65,21.18-14.48,46.09-14.48,74.81v2.11Z"/><path class="cls-1" d="M1514.79,1386.34c-11.3,0-19.76-2.94-25.41-8.82-5.65-5.88-8.48-14.25-8.48-25.09v-299.98h-64.22v-25.37h45.17c8.46,0,14.11-1.75,16.93-5.33,2.83-3.49,4.23-9.51,4.23-17.97v-78.35h26.84v101.65h83.29v25.37h-83.29v308.48h77.64v25.41h-72.7Z"/><path class="cls-1" d="M1735.71,919.78c-8.02,0-13.65-1.98-16.93-6.02-3.31-3.95-4.94-8.82-4.94-14.45v-6.34c0-5.65,1.63-10.48,4.94-14.48,3.29-4,8.91-6,16.93-6,8.48,0,14.34,2,17.65,6,3.29,4,4.94,8.82,4.94,14.48v6.34c0,5.63-1.65,10.5-4.94,14.45-3.31,4.04-9.17,6.02-17.65,6.02ZM1721.6,1386.34v-359.26h28.93v359.26h-28.93Z"/><path class="cls-1" d="M2152.16,1527.51v-197.65h-2.11c-8.94,17.88-22.7,33.18-41.29,45.91-18.59,12.68-42.46,19.02-71.64,19.02-30.6,0-57.07-7.17-79.41-21.51-22.36-14.34-39.52-35.66-51.54-63.88-11.99-28.22-17.99-62.59-17.99-103.07s6-74.67,17.99-102.71c12.02-27.99,29.18-49.17,51.54-63.51,22.33-14.34,48.8-21.51,79.41-21.51s53.17,6.25,71.99,18.66c18.82,12.5,32.49,27.89,40.94,46.23h2.11v-56.43h28.95v500.43h-28.95ZM2042.06,1368.69c19.76,0,38-3.63,54.71-10.94,16.7-7.26,30.1-17.65,40.23-31.06,10.11-13.42,15.16-28.81,15.16-46.23v-148.93c0-17.42-5.05-32.58-15.16-45.54-10.13-12.91-23.53-23.16-40.23-30.7-16.7-7.54-34.95-11.3-54.71-11.3-39.06,0-69.3,12.73-90.71,38.14-21.41,25.41-32.1,59.74-32.1,103.03v43.1c0,43.29,10.68,77.48,32.1,102.66,21.41,25.18,51.65,37.77,90.71,37.77Z"/></svg>