<?xml version="1.0" encoding="UTF-8"?><svg xmlns="http://www.w3.org/2000/svg" viewBox="0 0 2400 2400"><defs><style>.cls-1{letter-spacing:.1em;}.cls-2{letter-spacing:.1em;}.cls-3{letter-spacing:.09em;}.cls-4{letter-spacing:.09em;}.cls-5{letter-spacing:.09em;}.cls-6{letter-spacing:.06em;}.cls-7{fill:#000;font-family:MyriadPro-Regular, 'Myriad Pro';font-size:100px;}.cls-8{fill:#231f20;stroke-width:0px;}.cls-9{letter-spacing:.08em;}</style></defs><g id="NOTES"><text class="cls-7" transform="translate(19.41 -62.55)"><tspan class="cls-2" x="0" y="0">SE</tspan><tspan class="cls-9" x="118.5" y="0">C</tspan><tspan class="cls-2" x="184.4" y="0">ON</tspan><tspan class="cls-5" x="339.1" y="0">D</tspan><tspan class="cls-2" x="414.29" y="0">A</tspan><tspan class="cls-3" x="485.49" y="0">R</tspan><tspan class="cls-2" x="548.2" y="0">Y</tspan><tspan class="cls-6" x="612.29" y="0"> </tspan><tspan class="cls-1" x="639.89" y="0">WORD</tspan><tspan class="cls-4" x="953.79" y="0">M</tspan><tspan class="cls-2" x="1043.19" y="0">ARK</tspan></text></g><g id="_1-COLOR_LOGOS"><path class="cls-8" d="M309.42,1150.25v-230.11h26.91v36.78h1.79c5.08-12.26,12.93-22.35,23.55-30.28,10.61-7.92,25.19-11.88,43.73-11.88,24.22,0,43.21,7.62,56.96,22.88,13.75,15.25,20.63,36.94,20.63,65.04v147.57h-26.91v-142.64c0-23.02-5.01-40.14-15.03-51.36-10.02-11.21-24.44-16.82-43.28-16.82-10.47,0-20.41,1.79-29.83,5.38-9.42,3.59-17.04,9.05-22.88,16.37-5.83,7.33-8.75,16.68-8.75,28.03v161.03h-26.91Z"/><path class="cls-8" d="M663.32,1155.63c-20.34,0-38.12-4.86-53.38-14.58-15.25-9.71-27.07-23.55-35.44-41.49-8.37-17.94-12.56-39.32-12.56-64.14s4.19-46.65,12.56-64.59c8.37-17.94,20.19-31.77,35.44-41.49,15.25-9.71,33.04-14.58,53.38-14.58s38.05,4.86,53.15,14.58c15.1,9.72,26.84,23.55,35.21,41.49,8.37,17.94,12.56,39.47,12.56,64.59s-4.19,46.2-12.56,64.14c-8.37,17.94-20.11,31.78-35.21,41.49-15.1,9.71-32.82,14.58-53.15,14.58ZM663.32,1131.41c21.83,0,39.25-6.95,52.26-20.86,13.01-13.9,19.51-34.16,19.51-60.78v-29.16c0-26.61-6.5-46.87-19.51-60.78-13.01-13.9-30.43-20.86-52.26-20.86s-39.32,6.95-52.48,20.86c-13.16,13.9-19.74,34.17-19.74,60.78v29.16c0,26.62,6.57,46.87,19.74,60.78,13.16,13.9,30.65,20.86,52.48,20.86Z"/><path class="cls-8" d="M929.3,1155.63c-20.63,0-38.5-4.86-53.6-14.58-15.1-9.71-26.84-23.55-35.21-41.49-8.37-17.94-12.56-39.32-12.56-64.14s4.19-46.65,12.56-64.59c8.37-17.94,20.03-31.77,34.99-41.49,14.95-9.71,32.59-14.58,52.93-14.58s37.3,4.78,51.81,14.35c14.5,9.57,25.71,22.88,33.64,39.92,7.92,17.04,11.88,36.63,11.88,58.76v13.01h-169.1v11.21c0,23.63,6.51,42.84,19.51,57.64,13.01,14.8,31.17,22.2,54.5,22.2,16.15,0,30.05-3.88,41.71-11.66,11.66-7.77,20.63-18.98,26.91-33.64l19.74,13.46c-7.18,16.45-18.47,29.83-33.87,40.14-15.41,10.32-34.02,15.47-55.85,15.47ZM856.64,1020.17h139.95v-4.04c0-15.85-2.85-29.6-8.52-41.27-5.68-11.66-13.61-20.78-23.77-27.36-10.17-6.57-22.13-9.87-35.89-9.87s-26.91,3.36-37.68,10.09c-10.77,6.73-19.14,16.15-25.12,28.26-5.99,12.11-8.97,25.95-8.97,41.49v2.69Z"/><path class="cls-8" d="M1149.54,1150.25c-9.57,0-16.9-2.76-21.98-8.3-5.09-5.53-7.63-12.63-7.63-21.31v-176.73h-39.92v-23.77h25.12c6.57,0,11.06-1.34,13.45-4.04,2.39-2.69,3.59-7.18,3.59-13.46v-46.65h24.67v64.14h52.03v23.77h-52.03v182.56h48.44v23.77h-45.75Z"/><path class="cls-8" d="M1290.83,859.14c-6.28,0-10.92-1.57-13.91-4.71-2.99-3.14-4.48-7.1-4.48-11.89v-4.93c0-4.78,1.49-8.75,4.48-11.88,2.99-3.14,7.63-4.71,13.91-4.71s10.84,1.57,13.68,4.71c2.84,3.14,4.26,7.11,4.26,11.88v4.93c0,4.79-1.42,8.75-4.26,11.89-2.84,3.14-7.4,4.71-13.68,4.71ZM1277.37,1150.25v-230.11h26.91v230.11h-26.91Z"/><path class="cls-8" d="M1553.23,1239.96v-126.49h-1.79c-5.99,12.86-14.73,23.1-26.24,30.72-11.52,7.63-25.95,11.44-43.29,11.44-19.44,0-36.26-4.78-50.46-14.35-14.21-9.57-25.12-23.33-32.75-41.27-7.62-17.94-11.44-39.47-11.44-64.59s3.81-47.1,11.44-65.04c7.63-17.94,18.54-31.69,32.75-41.27,14.2-9.57,31.02-14.35,50.46-14.35,17.34,0,31.92,3.81,43.73,11.44,11.81,7.62,20.41,17.87,25.79,30.72h1.79v-36.78h26.91v319.82h-26.91ZM1488.63,1131.41c11.66,0,22.35-2.09,32.07-6.28,9.72-4.18,17.56-10.16,23.55-17.94,5.98-7.77,8.97-17.04,8.97-27.81v-90.16c0-9.87-2.99-18.54-8.97-26.01-5.99-7.47-13.83-13.3-23.55-17.49-9.72-4.18-20.41-6.28-32.07-6.28-22.43,0-40.07,7.18-52.93,21.53-12.86,14.35-19.29,33.49-19.29,57.41v33.64c0,23.93,6.43,43.14,19.29,57.64,12.86,14.51,30.5,21.76,52.93,21.76Z"/><path class="cls-8" d="M309.42,1573.61v-230.11h26.91v41.71h1.79c2.99-7.47,7.32-14.35,13.01-20.63,5.68-6.28,13.08-11.36,22.2-15.25,9.12-3.88,20.11-5.83,32.97-5.83h15.7v26.91h-20.63c-12.86,0-24.15,1.87-33.86,5.61-9.72,3.74-17.35,9.05-22.88,15.92-5.54,6.88-8.3,15.1-8.3,24.67v156.99h-26.91Z"/><path class="cls-8" d="M569.57,1578.99c-20.63,0-38.5-4.86-53.6-14.58-15.1-9.71-26.84-23.55-35.21-41.49-8.37-17.94-12.56-39.32-12.56-64.14s4.19-46.65,12.56-64.59c8.37-17.94,20.03-31.77,34.99-41.49,14.95-9.71,32.59-14.58,52.93-14.58s37.3,4.78,51.81,14.35c14.5,9.57,25.71,22.88,33.64,39.92,7.92,17.04,11.88,36.63,11.88,58.76v13.01h-169.1v11.21c0,23.63,6.51,42.84,19.51,57.64,13.01,14.8,31.17,22.2,54.5,22.2,16.15,0,30.05-3.88,41.71-11.66,11.66-7.77,20.63-18.98,26.91-33.64l19.74,13.46c-7.18,16.45-18.47,29.83-33.87,40.14-15.41,10.32-34.02,15.47-55.85,15.47ZM496.91,1443.53h139.95v-4.04c0-15.85-2.85-29.6-8.52-41.27-5.68-11.66-13.61-20.78-23.77-27.36-10.17-6.57-22.13-9.87-35.89-9.87s-26.91,3.36-37.68,10.09c-10.77,6.73-19.14,16.15-25.12,28.26-5.99,12.11-8.97,25.95-8.97,41.49v2.69Z"/><path class="cls-8" d="M814.48,1578.99c-20.34,0-37.68-3.81-52.03-11.44-14.35-7.62-26.77-18.46-37.23-32.52l19.74-15.7c9.57,11.96,20.03,21.01,31.4,27.14,11.36,6.13,24.67,9.2,39.92,9.2,17.04,0,30.28-3.66,39.7-10.99,9.42-7.32,14.13-17.87,14.13-31.62,0-11.66-3.52-21-10.54-28.03-7.03-7.02-18.77-11.73-35.21-14.13l-18.84-2.69c-13.76-2.09-26.09-5.61-37.01-10.54-10.92-4.93-19.36-11.81-25.35-20.63-5.98-8.82-8.97-20.11-8.97-33.87,0-21.83,7.55-38.13,22.65-48.89,15.1-10.77,33.87-16.15,56.29-16.15,12.85,0,24.07,1.57,33.64,4.71,9.57,3.14,18.01,7.33,25.34,12.56,7.32,5.24,13.97,11.44,19.96,18.61l-18.39,16.6c-5.68-7.47-13.46-14.2-23.33-20.19-9.87-5.98-22.88-8.97-39.02-8.97s-28.34,3.52-37.46,10.54c-9.13,7.03-13.68,16.97-13.68,29.83s4.11,22.28,12.34,28.26c8.22,5.99,20.41,10.32,36.56,13.01l18.39,3.14c23.62,3.59,41.04,10.54,52.26,20.86,11.21,10.32,16.82,24.75,16.82,43.29,0,14.35-3.36,26.62-10.09,36.78-6.73,10.17-16.23,18.02-28.48,23.55-12.27,5.53-26.77,8.3-43.51,8.3Z"/><path class="cls-8" d="M1064.32,1578.99c-20.63,0-38.5-4.86-53.6-14.58-15.1-9.71-26.84-23.55-35.21-41.49-8.37-17.94-12.56-39.32-12.56-64.14s4.19-46.65,12.56-64.59c8.37-17.94,20.03-31.77,34.99-41.49,14.95-9.71,32.59-14.58,52.93-14.58s37.3,4.78,51.81,14.35c14.5,9.57,25.71,22.88,33.64,39.92,7.92,17.04,11.88,36.63,11.88,58.76v13.01h-169.1v11.21c0,23.63,6.51,42.84,19.51,57.64s31.17,22.2,54.5,22.2c16.15,0,30.05-3.88,41.71-11.66,11.66-7.77,20.63-18.98,26.91-33.64l19.74,13.46c-7.18,16.45-18.47,29.83-33.87,40.14-15.41,10.32-34.02,15.47-55.85,15.47ZM991.65,1443.53h139.95v-4.04c0-15.85-2.85-29.6-8.52-41.27-5.68-11.66-13.61-20.78-23.77-27.36-10.17-6.57-22.13-9.87-35.89-9.87s-26.91,3.36-37.68,10.09c-10.77,6.73-19.14,16.15-25.12,28.26-5.99,12.11-8.97,25.95-8.97,41.49v2.69Z"/><path class="cls-8" d="M1300.25,1578.99c-23.93,0-42.54-6.05-55.84-18.16-13.31-12.11-19.96-28.63-19.96-49.57,0-14.05,3.21-26.09,9.64-36.11,6.43-10.01,16.6-17.64,30.5-22.88,13.9-5.23,31.92-7.85,54.05-7.85h51.58v-26.46c0-18.84-4.79-32.89-14.35-42.16-9.57-9.27-24.07-13.9-43.51-13.9-14.96,0-27.51,3.22-37.68,9.64-10.17,6.43-18.39,15.63-24.67,27.59l-17.05-14.8c6.28-13.16,15.99-24.15,29.16-32.97,13.16-8.82,30.2-13.23,51.13-13.23,26.91,0,47.62,6.73,62.13,20.18,14.5,13.46,21.75,32.45,21.75,56.97v134.57h30.5v23.77h-25.12c-9.87,0-17.2-2.54-21.98-7.63-4.78-5.08-7.62-11.81-8.52-20.18l-.45-8.97h-1.79c-5.09,13.16-13.46,23.48-25.12,30.95-11.66,7.47-26.46,11.21-44.41,11.21ZM1304.29,1555.67c12.56,0,23.77-2.02,33.64-6.06,9.87-4.04,17.72-9.71,23.55-17.04,5.83-7.32,8.75-15.92,8.75-25.79v-41.71h-52.93c-22.43,0-38.8,3.52-49.11,10.54-10.32,7.03-15.47,16.82-15.47,29.38v10.77c0,12.86,4.78,22.73,14.35,29.6,9.57,6.88,21.98,10.32,37.23,10.32Z"/><path class="cls-8" d="M1498.51,1573.61v-230.11h26.91v41.71h1.79c2.99-7.47,7.32-14.35,13.01-20.63,5.68-6.28,13.08-11.36,22.2-15.25,9.12-3.88,20.11-5.83,32.97-5.83h15.7v26.91h-20.63c-12.86,0-24.15,1.87-33.86,5.61-9.72,3.74-17.35,9.05-22.88,15.92-5.54,6.88-8.3,15.1-8.3,24.67v156.99h-26.91Z"/><path class="cls-8" d="M1757.76,1578.99c-31.7,0-56.37-10.61-74.01-31.85-17.65-21.23-26.46-50.68-26.46-88.36s8.82-67.58,26.46-88.81c17.64-21.23,42.31-31.85,74.01-31.85,21.23,0,38.58,4.78,52.03,14.35,13.46,9.57,23.47,21.83,30.05,36.78l-22.43,11.66c-5.38-12.26-13.01-21.75-22.88-28.48s-22.13-10.09-36.78-10.09c-23.32,0-41.04,7.33-53.15,21.98-12.11,14.65-18.17,33.79-18.17,57.41v33.64c0,23.63,6.06,42.77,18.17,57.42,12.11,14.65,29.83,21.98,53.15,21.98,15.55,0,28.71-3.43,39.48-10.32,10.76-6.87,19.43-16.74,26.01-29.6l19.74,13.46c-7.48,15.25-18.24,27.51-32.3,36.78-14.06,9.27-31.7,13.9-52.93,13.9Z"/><path class="cls-8" d="M1917,1573.61v-331.93h26.91v138.6h1.79c5.08-12.26,12.93-22.35,23.55-30.28,10.61-7.92,25.19-11.88,43.73-11.88,24.22,0,43.21,7.62,56.96,22.88,13.75,15.25,20.63,36.94,20.63,65.04v147.57h-26.91v-142.64c0-23.02-5.01-40.14-15.03-51.36-10.02-11.21-24.44-16.82-43.28-16.82-10.47,0-20.41,1.79-29.83,5.38-9.42,3.59-17.04,9.05-22.88,16.37-5.83,7.33-8.75,16.68-8.75,28.03v161.03h-26.91Z"/></g></svg>