<?xml version="1.0" encoding="UTF-8"?><svg xmlns="http://www.w3.org/2000/svg" viewBox="0 0 1884.71 513.17"><defs><style>.cls-1{fill:#516f99;}.cls-1,.cls-2,.cls-3,.cls-4,.cls-5{stroke-width:0px;}.cls-2{fill:#bfb7af;}.cls-3{fill:#dddfdb;}.cls-4{fill:#a3b3bf;}.cls-5{fill:#303b4e;}</style></defs><g id="SAVE_FOR_LATER"><path class="cls-3" d="M257.46.19c-66.65,3.98-111.67,51.02-167.55,109.42C57.65,143.32-12.93,217.08,2.06,294.93c2.18,11.31,5.5,19.24,11.48,33.53,26.98,64.48,71.8,102.05,87.77,115.12,24.76,20.27,82.5,67.55,161.85,69.53,78.64,1.96,132.21-45.43,239.36-140.2,36.24-32.05,55.99-54.99,58.13-85.49,2.66-37.86-23.17-68.19-51.29-98.02C387.85,60.49,327.1-3.97,257.46.19Z"/><path class="cls-2" d="M221.02,69.34c-39.94,11.37-63.52,33.48-97.15,67.05-15.98,15.95-57.23,57.89-71.15,109.47-8.15,30.18-3.71,51.68-2.74,56.1,1.58,7.19,4.12,14.96,9.58,26,6.17,12.48,24.81,46.78,76.63,88.94,21.06,17.14,31.59,25.7,46.52,32.84,12.16,5.81,49.04,21.61,95.78,15.05,24.03-3.37,39.71-11.11,64.31-23.26,36.58-18.06,79.75-39.38,112.2-86.2,14.75-21.28,32-46.17,31.47-80.73-.61-39.74-24.41-71.07-36.94-87.57-2.72-3.57-9.66-12.47-32.84-34.21-50.07-46.96-75.11-70.43-106.73-80.73-9.59-3.12-46.83-14.73-88.94-2.74Z"/><ellipse class="cls-4" cx="261.13" cy="271.86" rx="163.72" ry="147.57"/><circle class="cls-1" cx="256.29" cy="274.87" r="91.6"/><path class="cls-5" d="M246.66,266.2c2.1-2.45,5.28-3.68,9.54-3.68s7.4,1.21,9.59,3.64c2.19,2.42,3.28,5.38,3.28,8.89s-1.11,6.34-3.33,8.67c-2.22,2.33-5.41,3.5-9.55,3.5s-7.37-1.18-9.5-3.55c-2.14-2.37-3.2-5.24-3.2-8.63s1.05-6.39,3.15-8.85Z"/></g><g id="TYPOGRAPHY_COLORS"><path class="cls-1" d="M667.28,371.59v-222.9h17.95v34.16h1.31c4.68-10.81,12.4-20.07,23.21-27.83,10.81-7.7,25.55-11.58,44.23-11.58,24.52,0,43.35,7.21,56.49,21.67,13.14,14.43,19.7,35.52,19.7,63.29v143.18h-17.95v-140.13c0-24.55-5.33-42.71-15.98-54.54-10.66-11.8-26.06-17.73-46.2-17.73-11.39,0-21.98,2-31.76,5.93-9.78,3.93-17.73,9.98-23.86,18.16-6.13,8.18-9.19,18.28-9.19,30.22v158.09h-17.95Z"/><path class="cls-1" d="M1006.68,376.83c-19.57,0-36.42-4.5-50.59-13.57-14.16-9.04-25.1-22.24-32.84-39.63-7.73-17.36-11.6-38.6-11.6-63.72s3.88-46.27,11.6-63.49c7.74-17.22,18.69-30.36,32.84-39.4,14.17-9.07,31.02-13.57,50.59-13.57s36.48,4.5,50.79,13.57c14.3,9.04,25.33,22.18,33.06,39.4,7.74,17.22,11.62,38.38,11.62,63.49s-3.88,46.36-11.62,63.72c-7.73,17.39-18.76,30.59-33.06,39.63-14.31,9.07-31.25,13.57-50.79,13.57ZM1006.68,361.09c23.93,0,42.61-7.81,56.05-23.44,13.41-15.62,20.14-37.29,20.14-65.06v-24.95c0-27.74-6.73-49.41-20.14-65.03-13.44-15.62-32.12-23.44-56.05-23.44s-42.2,7.81-55.62,23.44c-13.43,15.62-20.14,37.29-20.14,65.03v24.95c0,27.77,6.71,49.44,20.14,65.06,13.43,15.62,31.97,23.44,55.62,23.44Z"/><path class="cls-1" d="M1264.17,376.83c-19.56,0-36.49-4.5-50.79-13.57-14.31-9.04-25.33-22.24-33.07-39.63-7.73-17.36-11.6-38.6-11.6-63.72s3.79-45.9,11.39-63.27c7.58-17.39,18.46-30.59,32.63-39.63,14.16-9.07,31.02-13.57,50.58-13.57,18.39,0,34.51,4.5,48.38,13.57,13.87,9.04,24.68,21.81,32.42,38.32,7.73,16.48,11.6,35.98,11.6,58.45v8.33h-168.17v11.4c0,26.26,6.79,47.44,20.37,63.47,13.57,16.08,32.62,24.12,57.15,24.12,17.22,0,31.89-4.16,44.01-12.49,12.12-8.33,21.38-20.53,27.81-36.58l13.57,7.9c-6.71,17.22-17.45,31.02-32.19,41.37-14.74,10.35-32.77,15.54-54.09,15.54ZM1187.54,247.65h148.9v-2.62c0-17.53-3.06-32.7-9.19-45.53-6.13-12.86-14.67-22.87-25.62-29.99-10.95-7.18-23.72-10.75-38.32-10.75-15.77,0-29.34,3.56-40.73,10.75-11.39,7.13-20.07,17.28-26.06,30.42-5.99,13.14-8.98,28.6-8.98,46.42v1.31Z"/><path class="cls-1" d="M1471.3,371.59c-7.01,0-12.26-1.82-15.77-5.47-3.51-3.65-5.26-8.84-5.26-15.57v-186.12h-39.84v-15.74h28.03c5.25,0,8.75-1.08,10.51-3.31,1.75-2.17,2.62-5.9,2.62-11.15v-48.61h16.65v63.07h51.68v15.74h-51.68v191.39h48.17v15.77h-45.1Z"/><path class="cls-1" d="M1608.37,82.12c-4.98,0-8.47-1.23-10.51-3.73-2.05-2.45-3.06-5.47-3.06-8.97v-3.93c0-3.51,1.01-6.5,3.06-8.98,2.04-2.48,5.53-3.72,10.51-3.72,5.26,0,8.9,1.24,10.95,3.72,2.04,2.48,3.06,5.47,3.06,8.98v3.93c0,3.49-1.03,6.51-3.06,8.97-2.05,2.51-5.69,3.73-10.95,3.73ZM1599.62,371.59v-222.9h17.95v222.9h-17.95Z"/><path class="cls-1" d="M1866.75,459.17v-122.63h-1.31c-5.55,11.09-14.08,20.58-25.62,28.48-11.53,7.87-26.34,11.8-44.45,11.8-18.99,0-35.41-4.45-49.27-13.34-13.87-8.9-24.52-22.12-31.97-39.63-7.44-17.51-11.16-38.83-11.16-63.95s3.72-46.33,11.16-63.72c7.46-17.36,18.1-30.51,31.97-39.4,13.86-8.9,30.28-13.34,49.27-13.34s32.99,3.88,44.66,11.58c11.68,7.75,20.16,17.31,25.4,28.68h1.31v-35.01h17.96v310.48h-17.96ZM1798.44,360.64c12.26,0,23.58-2.25,33.94-6.79,10.36-4.5,18.67-10.95,24.96-19.27,6.27-8.33,9.41-17.88,9.41-28.68v-92.4c0-10.81-3.14-20.21-9.41-28.25-6.29-8.01-14.6-14.37-24.96-19.05-10.36-4.68-21.68-7.01-33.94-7.01-24.23,0-42.99,7.9-56.28,23.66-13.29,15.77-19.91,37.06-19.91,63.92v26.74c0,26.86,6.63,48.07,19.91,63.69,13.29,15.62,32.05,23.44,56.28,23.44Z"/></g></svg>