<?xml version="1.0" encoding="UTF-8"?><svg id="FULL_COLOR_LOGOS" xmlns="http://www.w3.org/2000/svg" viewBox="0 0 2400 2400"><defs><style>.cls-1{fill:#718089;}.cls-1,.cls-2,.cls-3,.cls-4,.cls-5{stroke-width:0px;}.cls-2{fill:#dad5c9;}.cls-3{fill:#dae4ea;}.cls-4{fill:#303b4e;}.cls-5{fill:#928477;}</style></defs><path class="cls-2" d="M431.72,1324.57c-57.69,0-104.63-46.94-104.63-104.63s46.94-104.63,104.63-104.63,104.64,46.94,104.64,104.63-46.94,104.63-104.64,104.63ZM431.72,1124.91c-52.4,0-95.03,42.63-95.03,95.03s42.63,95.03,95.03,95.03,95.03-42.63,95.03-95.03-42.63-95.03-95.03-95.03Z"/><path class="cls-5" d="M436.99,1382.29c-101.04,0-183.23-74.3-183.23-165.63s82.2-165.63,183.23-165.63,183.23,74.3,183.23,165.63-82.2,165.63-183.23,165.63ZM436.99,1060.63c-95.74,0-173.63,69.99-173.63,156.03s77.89,156.03,173.63,156.03,173.63-69.99,173.63-156.03-77.89-156.03-173.63-156.03Z"/><path class="cls-1" d="M431.36,1433.42c-36.74,0-66.13-11.05-81.91-18.58-16.78-8.02-28.42-17.49-51.61-36.35-39.51-32.16-68.83-66.23-84.84-98.58-5.41-10.94-8.75-20.01-10.83-29.43-1.9-8.67-5.4-32.19,3.03-63.43,15.83-58.59,63.22-105.91,78.8-121.46,37.98-37.91,64.2-61.83,107.96-74.29h0c31.08-8.85,66.5-7.77,99.73,3.03,35.49,11.56,63.1,37.46,118.12,89.05,23.52,22.05,32,32.18,36.33,37.88,14.17,18.66,40.55,53.39,41.24,98.28.6,39.21-19.23,67.82-35.16,90.8-36.07,52.05-84.87,76.15-124.09,95.51-26.88,13.27-44.62,22.03-71.57,25.81-8.71,1.22-17.15,1.75-25.22,1.75ZM394.59,1000.55c-42.37,12.07-67.05,35.16-103.81,71.85-15.12,15.1-61.15,61.05-76.3,117.16-7.88,29.19-4.68,50.89-2.93,58.86,1.92,8.73,4.93,16.88,10.06,27.23,15.4,31.12,43.84,64.09,82.24,95.34,22.65,18.43,33.99,27.66,49.74,35.18,18.27,8.73,55.76,22.43,101.65,15.99,25.42-3.57,41.68-11.59,68.61-24.89,40.25-19.88,85.83-42.38,120.48-92.39,15.94-23,34-49.06,33.45-85.18-.64-41.73-25.78-74.83-39.28-92.6-2.38-3.13-9.6-12.64-35.25-36.69-53.98-50.62-81.07-76.03-114.52-86.92-31.44-10.23-64.87-11.27-94.13-2.93h0Z"/><path class="cls-4" d="M444.33,1484.45c-1.74,0-3.48-.02-5.24-.07-88.14-2.2-152.04-54.52-179.33-76.87-44.18-36.17-76.83-79.01-97.04-127.33-6.67-15.93-10.32-24.69-12.79-37.49-16.82-87.28,60.05-167.6,96.99-206.2,62.17-64.97,111.29-116.28,185.8-120.73h0c78.04-4.78,145.04,66.31,278.32,207.71,31.86,33.8,60.2,67.68,57.2,110.46-2.45,34.93-24.72,60.85-64.96,96.43-115.2,101.9-174.19,154.06-258.93,154.07ZM433.28,925.36c-70.75,4.22-118.71,54.33-179.42,117.78-35.83,37.44-110.38,115.34-94.5,197.74,2.27,11.83,5.8,20.26,12.2,35.55,19.62,46.9,51.33,88.48,94.28,123.65,26.52,21.72,88.63,72.58,173.48,74.69,83.71,2.09,141.88-49.27,257.57-151.59,38.33-33.9,59.52-58.27,61.75-89.91,2.73-38.9-24.27-71.01-54.61-103.2-131.23-139.22-197.06-209.11-270.76-204.71h0Z"/><path class="cls-3" d="M421.22,1210.49c2.29-2.67,5.75-4.01,10.4-4.01s8.07,1.32,10.46,3.96c2.38,2.64,3.58,5.87,3.58,9.69s-1.21,6.91-3.63,9.45c-2.42,2.54-5.89,3.82-10.41,3.82s-8.03-1.29-10.35-3.86c-2.33-2.58-3.49-5.71-3.49-9.4s1.15-6.97,3.44-9.64Z"/><path class="cls-4" d="M890.59,1329.33v-249.34h20.08v38.21h1.47c5.23-12.09,13.87-22.45,25.96-31.13,12.09-8.61,28.58-12.95,49.48-12.95,27.43,0,48.49,8.07,63.2,24.24,14.7,16.14,22.04,39.74,22.04,70.8v160.17h-20.08v-156.75c0-27.46-5.96-47.78-17.88-61.01-11.93-13.2-29.15-19.84-51.68-19.84-12.74,0-24.59,2.23-35.53,6.63-10.94,4.4-19.84,11.16-26.69,20.32-6.86,9.15-10.29,20.44-10.29,33.81v176.85h-20.08Z"/><path class="cls-4" d="M1270.25,1335.2c-21.89,0-40.74-5.04-56.59-15.18-15.83-10.11-28.08-24.88-36.74-44.33-8.64-19.42-12.98-43.18-12.98-71.28s4.34-51.76,12.98-71.03c8.66-19.26,20.91-33.97,36.74-44.08,15.85-10.14,34.7-15.18,56.59-15.18s40.81,5.04,56.82,15.18c15.99,10.11,28.34,24.81,36.98,44.08,8.66,19.26,13,42.93,13,71.03s-4.34,51.86-13,71.28c-8.64,19.45-20.99,34.22-36.98,44.33-16.01,10.14-34.95,15.18-56.82,15.18ZM1270.25,1317.59c26.77,0,47.66-8.74,62.7-26.22,15.01-17.48,22.53-41.72,22.53-72.78v-27.91c0-31.03-7.53-55.27-22.53-72.75-15.04-17.48-35.93-26.22-62.7-26.22s-47.2,8.74-62.22,26.22c-15.02,17.48-22.53,41.72-22.53,72.75v27.91c0,31.06,7.51,55.3,22.53,72.78,15.02,17.48,35.77,26.22,62.22,26.22Z"/><path class="cls-4" d="M1558.29,1335.2c-21.88,0-40.82-5.04-56.82-15.18-16.01-10.11-28.34-24.88-37-44.33-8.64-19.42-12.98-43.18-12.98-71.28s4.24-51.35,12.74-70.77c8.48-19.45,20.65-34.22,36.5-44.33,15.83-10.14,34.7-15.18,56.58-15.18,20.57,0,38.61,5.04,54.12,15.18,15.52,10.11,27.6,24.4,36.26,42.86,8.64,18.43,12.98,40.25,12.98,65.38v9.31h-188.12v12.76c0,29.37,7.59,53.07,22.79,70.99,15.18,17.99,36.49,26.98,63.93,26.98,19.26,0,35.67-4.66,49.23-13.97,13.55-9.31,23.92-22.96,31.11-40.92l15.18,8.83c-7.51,19.26-19.52,34.7-36.01,46.28-16.49,11.58-36.66,17.38-60.5,17.38ZM1472.56,1190.69h166.56v-2.93c0-19.61-3.43-36.58-10.29-50.93-6.86-14.38-16.41-25.58-28.66-33.55-12.25-8.04-26.54-12.02-42.86-12.02-17.64,0-32.82,3.99-45.56,12.02-12.74,7.97-22.45,19.33-29.15,34.03-6.7,14.7-10.05,31.99-10.05,51.92v1.47Z"/><path class="cls-4" d="M1789.99,1329.33c-7.85,0-13.71-2.04-17.64-6.12-3.92-4.08-5.88-9.89-5.88-17.41v-208.2h-44.57v-17.61h31.35c5.87,0,9.79-1.21,11.75-3.7,1.96-2.42,2.93-6.6,2.93-12.47v-54.38h18.63v70.55h57.81v17.61h-57.81v214.1h53.88v17.64h-50.45Z"/><path class="cls-4" d="M1943.32,1005.52c-5.57,0-9.47-1.37-11.75-4.18-2.3-2.74-3.43-6.12-3.43-10.03v-4.4c0-3.92,1.13-7.27,3.43-10.05,2.28-2.77,6.19-4.16,11.75-4.16,5.88,0,9.95,1.39,12.25,4.16,2.28,2.77,3.43,6.12,3.43,10.05v4.4c0,3.91-1.15,7.29-3.43,10.03-2.3,2.81-6.36,4.18-12.25,4.18ZM1933.53,1329.33v-249.34h20.08v249.34h-20.08Z"/><path class="cls-4" d="M2232.35,1427.31v-137.17h-1.47c-6.2,12.41-15.76,23.03-28.66,31.86-12.9,8.8-29.47,13.2-49.72,13.2-21.24,0-39.61-4.98-55.11-14.93-15.52-9.95-27.43-24.75-35.77-44.33-8.32-19.58-12.49-43.44-12.49-71.54s4.16-51.83,12.49-71.28c8.34-19.42,20.25-34.13,35.77-44.08,15.5-9.95,33.87-14.93,55.11-14.93s36.9,4.34,49.96,12.95c13.06,8.67,22.55,19.36,28.42,32.08h1.47v-39.16h20.09v347.32h-20.09ZM2155.94,1317.08c13.71,0,26.38-2.52,37.97-7.59,11.59-5.04,20.89-12.25,27.92-21.56,7.02-9.31,10.52-20,10.52-32.08v-103.37c0-12.09-3.51-22.61-10.52-31.61-7.03-8.96-16.33-16.07-27.92-21.3s-24.25-7.85-37.97-7.85c-27.11,0-48.09,8.83-62.96,26.47-14.86,17.64-22.28,41.46-22.28,71.5v29.92c0,30.04,7.42,53.77,22.28,71.25,14.86,17.48,35.85,26.22,62.96,26.22Z"/></svg>