<?xml version="1.0" encoding="UTF-8"?><svg xmlns="http://www.w3.org/2000/svg" viewBox="0 0 2393.24 2393.24"><defs><style>.cls-1{fill:#333e48;}.cls-1,.cls-2,.cls-3,.cls-4,.cls-5,.cls-6{stroke-width:0px;}.cls-2{fill:#dae1e8;}.cls-3{fill:#8d8179;}.cls-4{fill:#75828d;}.cls-5{fill:#000;}.cls-6{fill:#d7d1ca;}</style></defs><g id="BACKGROUNDS_HIDE_THESE_WHEN_EXPORTING_FILES_"><rect class="cls-5" x="-3.38" y="-3.38" width="2400" height="2400"/></g><g id="FULL_COLOR_LOGOS"><path class="cls-4" d="M435.25,1337.25c-65.13,0-118.12-52.99-118.12-118.12s52.99-118.12,118.12-118.12,118.13,52.99,118.13,118.12-52.99,118.12-118.13,118.12ZM435.25,1111.85c-59.15,0-107.28,48.12-107.28,107.28s48.12,107.28,107.28,107.28,107.28-48.12,107.28-107.28-48.13-107.28-107.28-107.28Z"/><path class="cls-3" d="M441.2,1402.41c-114.07,0-206.86-83.88-206.86-186.99s92.79-186.99,206.86-186.99,206.86,83.88,206.86,186.99-92.79,186.99-206.86,186.99ZM441.2,1039.28c-108.08,0-196.01,79.02-196.01,176.14s87.93,176.14,196.01,176.14,196.01-79.02,196.01-176.14-87.93-176.14-196.01-176.14Z"/><path class="cls-6" d="M434.84,1460.14c-41.47,0-74.65-12.47-92.47-20.98-18.95-9.05-32.08-19.74-58.26-41.04-44.61-36.3-77.71-74.76-95.78-111.29-6.11-12.35-9.88-22.59-12.22-33.23-2.14-9.79-6.09-36.34,3.43-71.6,17.87-66.14,71.37-119.56,88.95-137.12,42.88-42.8,72.48-69.8,121.88-83.87h0c35.09-9.99,75.08-8.77,112.59,3.43,40.06,13.05,71.24,42.29,133.35,100.54,26.56,24.9,36.13,36.33,41.02,42.76,16,21.07,45.78,60.28,46.56,110.95.68,44.26-21.71,76.56-39.69,102.51-40.72,58.76-95.82,85.97-140.09,107.83-30.35,14.99-50.37,24.87-80.79,29.14-9.84,1.38-19.36,1.98-28.47,1.98ZM393.34,971.45c-47.84,13.62-75.7,39.7-117.19,81.12-17.07,17.05-69.03,68.92-86.14,132.26-8.9,32.95-5.28,57.45-3.31,66.45,2.17,9.86,5.57,19.06,11.35,30.74,17.38,35.13,49.49,72.35,92.84,107.63,25.57,20.81,38.37,31.22,56.16,39.71,20.63,9.85,62.95,25.32,114.76,18.05,28.69-4.03,47.05-13.09,77.46-28.1,45.44-22.44,96.89-47.85,136.01-104.3,17.99-25.96,38.39-55.38,37.76-96.16-.73-47.11-29.1-84.48-44.35-104.54-2.68-3.53-10.84-14.27-39.8-41.42-60.94-57.15-91.52-85.84-129.29-98.13-35.49-11.55-73.23-12.72-106.27-3.31h0Z"/><path class="cls-2" d="M449.49,1517.74c-1.96,0-3.93-.03-5.91-.07-99.51-2.48-171.65-61.55-202.45-86.78-49.87-40.84-86.73-89.2-109.55-143.74-7.52-17.99-11.65-27.87-14.44-42.32-18.98-98.53,67.79-189.21,109.49-232.78,70.19-73.34,125.64-131.27,209.75-136.29h0c88.1-5.4,163.75,74.86,314.2,234.5,35.97,38.16,67.96,76.41,64.57,124.7-2.77,39.44-27.91,68.69-73.34,108.87-130.06,115.04-196.64,173.93-292.31,173.93ZM437.02,886.57c-79.87,4.77-134.01,61.34-202.55,132.96-40.45,42.27-124.61,130.21-106.68,223.24,2.57,13.35,6.54,22.87,13.77,40.14,22.15,52.94,57.95,99.89,106.44,139.59,29.94,24.52,100.06,81.93,195.84,84.32,94.5,2.36,160.18-55.62,290.78-171.14,43.27-38.27,67.19-65.78,69.71-101.5,3.08-43.91-27.4-80.16-61.65-116.51-148.15-157.17-222.46-236.07-305.66-231.11h0Z"/><path class="cls-1" d="M423.4,1208.46c2.59-3.02,6.5-4.53,11.74-4.53s9.11,1.49,11.8,4.47c2.69,2.98,4.04,6.63,4.04,10.94s-1.37,7.8-4.09,10.67c-2.73,2.87-6.65,4.31-11.75,4.31s-9.07-1.46-11.69-4.36c-2.63-2.91-3.93-6.45-3.93-10.62s1.29-7.87,3.88-10.88Z"/><path class="cls-2" d="M953.29,1159.41v-172.11h20.13v27.51h1.34c3.8-9.17,9.67-16.72,17.62-22.65,7.94-5.92,18.84-8.89,32.71-8.89,18.12,0,32.32,5.7,42.61,17.11,10.29,11.41,15.43,27.63,15.43,48.65v110.38h-20.13v-106.69c0-17.22-3.75-30.03-11.24-38.42-7.49-8.39-18.28-12.58-32.37-12.58-7.83,0-15.26,1.34-22.31,4.02-7.05,2.68-12.75,6.77-17.11,12.25-4.36,5.48-6.54,12.47-6.54,20.97v120.45h-20.13Z"/><path class="cls-2" d="M1218,1163.43c-15.21,0-28.52-3.64-39.92-10.9-11.41-7.26-20.25-17.61-26.5-31.03-6.26-13.42-9.39-29.41-9.39-47.98s3.13-34.89,9.39-48.31c6.26-13.42,15.1-23.76,26.5-31.03,11.41-7.26,24.71-10.9,39.92-10.9s28.46,3.64,39.76,10.9c11.29,7.27,20.07,17.61,26.34,31.03,6.26,13.42,9.39,29.52,9.39,48.31s-3.14,34.56-9.39,47.98c-6.26,13.42-15.04,23.77-26.34,31.03-11.3,7.26-24.55,10.9-39.76,10.9ZM1218,1145.31c16.33,0,29.36-5.2,39.09-15.6,9.73-10.4,14.59-25.55,14.59-45.46v-21.81c0-19.9-4.86-35.06-14.59-45.46s-22.76-15.6-39.09-15.6-29.41,5.2-39.25,15.6c-9.85,10.4-14.76,25.56-14.76,45.46v21.81c0,19.91,4.92,35.06,14.76,45.46,9.84,10.4,22.92,15.6,39.25,15.6Z"/><path class="cls-2" d="M1416.94,1163.43c-15.43,0-28.8-3.64-40.09-10.9-11.3-7.26-20.08-17.61-26.34-31.03-6.26-13.42-9.39-29.41-9.39-47.98s3.13-34.89,9.39-48.31c6.26-13.42,14.98-23.76,26.17-31.03,11.18-7.26,24.37-10.9,39.59-10.9s27.9,3.58,38.75,10.73c10.85,7.16,19.23,17.11,25.16,29.86,5.92,12.75,8.89,27.4,8.89,43.95v9.73h-126.48v8.39c0,17.67,4.87,32.04,14.6,43.11,9.73,11.07,23.32,16.61,40.76,16.61,12.08,0,22.48-2.9,31.2-8.72,8.72-5.81,15.43-14.2,20.13-25.16l14.76,10.07c-5.37,12.3-13.82,22.31-25.33,30.03-11.52,7.72-25.45,11.57-41.77,11.57ZM1362.59,1062.11h104.68v-3.02c0-11.85-2.13-22.14-6.38-30.87-4.25-8.72-10.18-15.54-17.78-20.47-7.61-4.92-16.55-7.38-26.84-7.38s-20.13,2.52-28.18,7.55c-8.05,5.03-14.32,12.08-18.79,21.13-4.48,9.06-6.71,19.41-6.71,31.03v2.01Z"/><path class="cls-2" d="M1581.68,1159.41c-7.16,0-12.64-2.07-16.44-6.21-3.81-4.14-5.7-9.45-5.7-15.94v-132.19h-29.86v-17.78h18.79c4.92,0,8.27-1.01,10.06-3.02,1.79-2.01,2.68-5.37,2.68-10.07v-34.89h18.45v47.98h38.92v17.78h-38.92v136.55h36.23v17.78h-34.22Z"/><path class="cls-2" d="M1687.36,941.66c-4.7,0-8.17-1.17-10.4-3.52-2.24-2.35-3.35-5.31-3.35-8.89v-3.69c0-3.57,1.12-6.54,3.35-8.89,2.23-2.35,5.7-3.52,10.4-3.52s8.1,1.17,10.23,3.52c2.12,2.35,3.19,5.32,3.19,8.89v3.69c0,3.58-1.06,6.54-3.19,8.89-2.13,2.35-5.54,3.52-10.23,3.52ZM1677.29,1159.41v-172.11h20.13v172.11h-20.13Z"/><path class="cls-2" d="M1883.62,1226.51v-94.61h-1.34c-4.48,9.62-11.02,17.28-19.63,22.98-8.61,5.7-19.41,8.56-32.38,8.56-14.54,0-27.12-3.58-37.74-10.73-10.63-7.16-18.79-17.45-24.49-30.87-5.7-13.42-8.56-29.52-8.56-48.31s2.85-35.23,8.56-48.65c5.7-13.42,13.87-23.71,24.49-30.87,10.62-7.16,23.2-10.73,37.74-10.73,12.97,0,23.87,2.85,32.71,8.56,8.83,5.7,15.27,13.37,19.29,22.98h1.34v-27.51h20.13v239.21h-20.13ZM1835.31,1145.31c8.72,0,16.72-1.56,23.99-4.7,7.27-3.13,13.14-7.6,17.62-13.42,4.47-5.81,6.71-12.75,6.71-20.8v-67.44c0-7.38-2.24-13.87-6.71-19.46-4.48-5.59-10.35-9.95-17.62-13.09-7.27-3.13-15.26-4.7-23.99-4.7-16.78,0-29.97,5.37-39.59,16.1-9.62,10.73-14.43,25.05-14.43,42.94v25.16c0,17.9,4.81,32.27,14.43,43.11,9.62,10.85,22.81,16.27,39.59,16.27Z"/><path class="cls-2" d="M953.29,1476.07v-172.11h20.13v31.2h1.34c2.23-5.59,5.48-10.73,9.73-15.43,4.25-4.7,9.78-8.5,16.61-11.41,6.82-2.9,15.04-4.36,24.66-4.36h11.74v20.13h-15.43c-9.62,0-18.06,1.4-25.33,4.2-7.27,2.8-12.98,6.77-17.11,11.91-4.14,5.15-6.21,11.3-6.21,18.45v117.43h-20.13Z"/><path class="cls-2" d="M1147.88,1480.09c-15.43,0-28.8-3.64-40.09-10.9-11.3-7.26-20.08-17.61-26.34-31.03-6.26-13.42-9.39-29.41-9.39-47.98s3.13-34.89,9.39-48.31c6.26-13.42,14.98-23.76,26.17-31.03,11.18-7.26,24.37-10.9,39.59-10.9s27.9,3.58,38.75,10.73c10.85,7.16,19.23,17.11,25.16,29.86,5.92,12.75,8.89,27.4,8.89,43.95v9.73h-126.48v8.39c0,17.67,4.87,32.04,14.6,43.11s23.32,16.61,40.76,16.61c12.08,0,22.48-2.9,31.2-8.72,8.72-5.81,15.43-14.2,20.13-25.16l14.76,10.07c-5.37,12.3-13.82,22.31-25.33,30.03-11.52,7.72-25.45,11.57-41.77,11.57ZM1093.52,1378.77h104.68v-3.02c0-11.85-2.13-22.14-6.38-30.87-4.25-8.72-10.18-15.54-17.78-20.47-7.61-4.92-16.55-7.38-26.84-7.38s-20.13,2.52-28.18,7.55c-8.05,5.03-14.32,12.08-18.79,21.13-4.48,9.06-6.71,19.41-6.71,31.03v2.01Z"/><path class="cls-2" d="M1331.06,1480.09c-15.21,0-28.18-2.85-38.92-8.56-10.74-5.7-20.02-13.81-27.85-24.32l14.76-11.74c7.16,8.95,14.98,15.72,23.49,20.3,8.5,4.59,18.45,6.88,29.86,6.88,12.75,0,22.65-2.74,29.69-8.22,7.04-5.48,10.57-13.36,10.57-23.65,0-8.72-2.63-15.71-7.89-20.97-5.26-5.25-14.04-8.77-26.34-10.57l-14.09-2.01c-10.29-1.56-19.52-4.19-27.68-7.88-8.17-3.69-14.48-8.83-18.96-15.43-4.48-6.6-6.71-15.04-6.71-25.33,0-16.33,5.65-28.52,16.94-36.57,11.29-8.05,25.33-12.08,42.11-12.08,9.61,0,18,1.17,25.16,3.52,7.16,2.35,13.47,5.48,18.96,9.39,5.48,3.92,10.45,8.56,14.93,13.92l-13.76,12.41c-4.25-5.59-10.07-10.62-17.45-15.1-7.38-4.47-17.11-6.71-29.19-6.71s-21.19,2.63-28.02,7.89c-6.83,5.26-10.23,12.7-10.23,22.31s3.07,16.67,9.23,21.14c6.15,4.48,15.26,7.72,27.34,9.73l13.75,2.35c17.67,2.68,30.7,7.89,39.09,15.6,8.39,7.72,12.58,18.51,12.58,32.38,0,10.73-2.51,19.91-7.55,27.51-5.03,7.61-12.14,13.48-21.31,17.62-9.17,4.13-20.02,6.2-32.54,6.2Z"/><path class="cls-2" d="M1517.93,1480.09c-15.43,0-28.8-3.64-40.09-10.9-11.3-7.26-20.08-17.61-26.34-31.03-6.26-13.42-9.39-29.41-9.39-47.98s3.13-34.89,9.39-48.31c6.26-13.42,14.98-23.76,26.17-31.03,11.18-7.26,24.37-10.9,39.59-10.9s27.9,3.58,38.75,10.73c10.85,7.16,19.23,17.11,25.16,29.86,5.92,12.75,8.89,27.4,8.89,43.95v9.73h-126.48v8.39c0,17.67,4.87,32.04,14.6,43.11,9.73,11.07,23.32,16.61,40.76,16.61,12.08,0,22.48-2.9,31.2-8.72,8.72-5.81,15.43-14.2,20.13-25.16l14.76,10.07c-5.37,12.3-13.82,22.31-25.33,30.03-11.52,7.72-25.45,11.57-41.77,11.57ZM1463.58,1378.77h104.68v-3.02c0-11.85-2.13-22.14-6.38-30.87-4.25-8.72-10.18-15.54-17.78-20.47-7.61-4.92-16.55-7.38-26.84-7.38s-20.13,2.52-28.18,7.55c-8.05,5.03-14.32,12.08-18.79,21.13-4.48,9.06-6.71,19.41-6.71,31.03v2.01Z"/><path class="cls-2" d="M1694.4,1480.09c-17.9,0-31.82-4.53-41.77-13.59-9.96-9.06-14.93-21.41-14.93-37.07,0-10.51,2.4-19.51,7.21-27.01,4.81-7.49,12.41-13.19,22.81-17.11,10.4-3.91,23.87-5.87,40.43-5.87h38.58v-19.79c0-14.09-3.58-24.6-10.74-31.54-7.16-6.93-18.01-10.4-32.54-10.4-11.19,0-20.58,2.4-28.18,7.21-7.61,4.81-13.76,11.69-18.45,20.63l-12.75-11.07c4.7-9.84,11.96-18.06,21.81-24.66,9.84-6.6,22.59-9.9,38.25-9.9,20.13,0,35.61,5.03,46.47,15.1,10.85,10.07,16.27,24.27,16.27,42.61v100.65h22.81v17.78h-18.79c-7.38,0-12.86-1.9-16.44-5.7-3.58-3.8-5.7-8.83-6.37-15.1l-.34-6.71h-1.34c-3.81,9.85-10.07,17.56-18.79,23.15s-19.79,8.39-33.21,8.39ZM1697.42,1462.65c9.39,0,17.78-1.51,25.16-4.53,7.38-3.02,13.25-7.26,17.62-12.75,4.36-5.48,6.54-11.91,6.54-19.29v-31.2h-39.59c-16.78,0-29.02,2.63-36.74,7.88-7.72,5.26-11.57,12.58-11.57,21.97v8.05c0,9.62,3.57,17,10.73,22.14,7.16,5.15,16.44,7.72,27.85,7.72Z"/><path class="cls-2" d="M1842.69,1476.07v-172.11h20.13v31.2h1.34c2.23-5.59,5.48-10.73,9.73-15.43,4.25-4.7,9.78-8.5,16.61-11.41,6.82-2.9,15.04-4.36,24.66-4.36h11.74v20.13h-15.43c-9.62,0-18.06,1.4-25.33,4.2-7.27,2.8-12.98,6.77-17.11,11.91-4.14,5.15-6.21,11.3-6.21,18.45v117.43h-20.13Z"/><path class="cls-2" d="M2036.61,1480.09c-23.71,0-42.16-7.94-55.36-23.82-13.2-15.88-19.79-37.91-19.79-66.09s6.6-50.55,19.79-66.43c13.19-15.88,31.65-23.82,55.36-23.82,15.88,0,28.85,3.58,38.92,10.73,10.07,7.16,17.56,16.33,22.48,27.51l-16.78,8.72c-4.02-9.17-9.73-16.27-17.11-21.3-7.38-5.03-16.55-7.55-27.51-7.55-17.44,0-30.7,5.48-39.76,16.44-9.06,10.96-13.59,25.28-13.59,42.94v25.16c0,17.67,4.53,31.99,13.59,42.95,9.06,10.96,22.31,16.44,39.76,16.44,11.63,0,21.47-2.57,29.53-7.72,8.05-5.14,14.54-12.52,19.46-22.14l14.76,10.07c-5.59,11.41-13.64,20.58-24.16,27.51-10.52,6.93-23.71,10.4-39.59,10.4Z"/><path class="cls-2" d="M2155.71,1476.07v-248.27h20.13v103.67h1.34c3.8-9.17,9.67-16.72,17.62-22.65,7.94-5.92,18.84-8.89,32.71-8.89,18.12,0,32.32,5.7,42.61,17.11,10.29,11.41,15.43,27.63,15.43,48.65v110.38h-20.13v-106.69c0-17.22-3.75-30.03-11.24-38.42-7.49-8.39-18.28-12.58-32.37-12.58-7.83,0-15.26,1.34-22.31,4.02-7.05,2.68-12.75,6.77-17.11,12.25-4.36,5.48-6.54,12.47-6.54,20.97v120.45h-20.13Z"/></g></svg>