<?xml version="1.0" encoding="UTF-8"?><svg id="SAVE_FOR_LATER" xmlns="http://www.w3.org/2000/svg" viewBox="0 0 560.84 513.17"><defs><style>.cls-1{fill:#516f99;}.cls-1,.cls-2,.cls-3,.cls-4{stroke-width:0px;}.cls-2{fill:#718089;}.cls-3{fill:#a3b3bf;}.cls-4{fill:#303b4e;}</style></defs><path class="cls-4" d="M257.46.19c-66.65,3.98-111.67,51.02-167.55,109.42C57.65,143.32-12.93,217.08,2.06,294.93c2.18,11.31,5.5,19.24,11.48,33.53,26.98,64.48,71.8,102.05,87.77,115.12,24.76,20.27,82.5,67.55,161.85,69.53,78.64,1.96,132.21-45.43,239.36-140.2,36.24-32.05,55.99-54.99,58.13-85.49,2.66-37.86-23.17-68.19-51.29-98.02C387.85,60.49,327.1-3.97,257.46.19Z"/><path class="cls-2" d="M221.02,69.34c-39.94,11.37-63.52,33.48-97.15,67.05-15.98,15.95-57.23,57.89-71.15,109.47-8.15,30.18-3.71,51.68-2.74,56.1,1.58,7.19,4.12,14.96,9.58,26,6.17,12.48,24.81,46.78,76.63,88.94,21.06,17.14,31.59,25.7,46.52,32.84,12.16,5.81,49.04,21.61,95.78,15.05,24.03-3.37,39.71-11.11,64.31-23.26,36.58-18.06,79.75-39.38,112.2-86.2,14.75-21.28,32-46.17,31.47-80.73-.61-39.74-24.41-71.07-36.94-87.57-2.72-3.57-9.66-12.47-32.84-34.21-50.07-46.96-75.11-70.43-106.73-80.73-9.59-3.12-46.83-14.73-88.94-2.74Z"/><ellipse class="cls-3" cx="261.13" cy="271.86" rx="163.72" ry="147.57"/><circle class="cls-1" cx="256.29" cy="274.87" r="91.6"/><path class="cls-4" d="M246.66,266.2c2.1-2.45,5.28-3.68,9.54-3.68s7.4,1.21,9.59,3.64c2.19,2.42,3.28,5.38,3.28,8.89s-1.11,6.34-3.33,8.67c-2.22,2.33-5.41,3.5-9.55,3.5s-7.37-1.18-9.5-3.55c-2.14-2.37-3.2-5.24-3.2-8.63s1.05-6.39,3.15-8.85Z"/></svg>