<?xml version="1.0" encoding="UTF-8"?><svg xmlns="http://www.w3.org/2000/svg" viewBox="0 0 1895.13 513.17"><defs><style>.cls-1{fill:#516f99;}.cls-1,.cls-2,.cls-3,.cls-4{stroke-width:0px;}.cls-2{fill:#718089;}.cls-3{fill:#a3b3bf;}.cls-4{fill:#303b4e;}</style></defs><g id="SAVE_FOR_LATER"><path class="cls-4" d="M257.46.19c-66.65,3.98-111.67,51.02-167.55,109.42C57.65,143.32-12.93,217.08,2.06,294.93c2.18,11.31,5.5,19.24,11.48,33.53,26.98,64.48,71.8,102.05,87.77,115.12,24.76,20.27,82.5,67.55,161.85,69.53,78.64,1.96,132.21-45.43,239.36-140.2,36.24-32.05,55.99-54.99,58.13-85.49,2.66-37.86-23.17-68.19-51.29-98.02C387.85,60.49,327.1-3.97,257.46.19Z"/><path class="cls-2" d="M221.02,69.34c-39.94,11.37-63.52,33.48-97.15,67.05-15.98,15.95-57.23,57.89-71.15,109.47-8.15,30.18-3.71,51.68-2.74,56.1,1.58,7.19,4.12,14.96,9.58,26,6.17,12.48,24.81,46.78,76.63,88.94,21.06,17.14,31.59,25.7,46.52,32.84,12.16,5.81,49.04,21.61,95.78,15.05,24.03-3.37,39.71-11.11,64.31-23.26,36.58-18.06,79.75-39.38,112.2-86.2,14.75-21.28,32-46.17,31.47-80.73-.61-39.74-24.41-71.07-36.94-87.57-2.72-3.57-9.66-12.47-32.84-34.21-50.07-46.96-75.11-70.43-106.73-80.73-9.59-3.12-46.83-14.73-88.94-2.74Z"/><ellipse class="cls-3" cx="261.13" cy="271.86" rx="163.72" ry="147.57"/><circle class="cls-1" cx="256.29" cy="274.87" r="91.6"/><path class="cls-4" d="M246.66,266.2c2.1-2.45,5.28-3.68,9.54-3.68s7.4,1.21,9.59,3.64c2.19,2.42,3.28,5.38,3.28,8.89s-1.11,6.34-3.33,8.67c-2.22,2.33-5.41,3.5-9.55,3.5s-7.37-1.18-9.5-3.55c-2.14-2.37-3.2-5.24-3.2-8.63s1.05-6.39,3.15-8.85Z"/></g><g id="TYPOGRAPHY_COLORS"><path class="cls-1" d="M668.99,373.02v-224.49h18.08v34.4h1.32c4.71-10.88,12.49-20.22,23.37-28.03,10.88-7.75,25.73-11.66,44.55-11.66,24.69,0,43.66,7.26,56.9,21.82,13.24,14.53,19.84,35.78,19.84,63.75v144.21h-18.08v-141.13c0-24.72-5.37-43.01-16.09-54.93-10.74-11.89-26.25-17.86-46.53-17.86-11.47,0-22.14,2.01-31.99,5.97-9.85,3.96-17.86,10.05-24.03,18.29-6.17,8.24-9.26,18.41-9.26,30.44v159.22h-18.08Z"/><path class="cls-1" d="M1010.81,378.31c-19.71,0-36.68-4.54-50.95-13.67-14.26-9.1-25.28-22.4-33.08-39.91-7.78-17.49-11.69-38.88-11.69-64.18s3.91-46.6,11.69-63.95c7.8-17.34,18.82-30.58,33.08-39.68,14.27-9.13,31.24-13.67,50.95-13.67s36.74,4.54,51.16,13.67c14.4,9.1,25.51,22.34,33.29,39.68,7.8,17.34,11.7,38.65,11.7,63.95s-3.91,46.69-11.7,64.18c-7.78,17.52-18.89,30.81-33.29,39.91-14.41,9.13-31.47,13.67-51.16,13.67ZM1010.81,362.46c24.11,0,42.91-7.87,56.45-23.6,13.51-15.74,20.29-37.56,20.29-65.53v-25.13c0-27.94-6.78-49.76-20.29-65.5-13.54-15.74-32.35-23.6-56.45-23.6s-42.5,7.87-56.02,23.6c-13.52,15.74-20.29,37.56-20.29,65.5v25.13c0,27.97,6.76,49.79,20.29,65.53,13.52,15.74,32.2,23.6,56.02,23.6Z"/><path class="cls-1" d="M1270.15,378.31c-19.7,0-36.76-4.54-51.16-13.67-14.41-9.1-25.51-22.4-33.31-39.91-7.78-17.49-11.69-38.88-11.69-64.18s3.82-46.23,11.47-63.72c7.64-17.52,18.59-30.81,32.86-39.91,14.26-9.13,31.24-13.67,50.94-13.67,18.52,0,34.76,4.54,48.73,13.67,13.97,9.1,24.85,21.97,32.65,38.59,7.78,16.6,11.69,36.24,11.69,58.87v8.38h-169.37v11.49c0,26.45,6.83,47.78,20.52,63.92,13.67,16.2,32.85,24.29,57.56,24.29,17.34,0,32.12-4.19,44.32-12.58,12.2-8.38,21.54-20.67,28.01-36.84l13.67,7.95c-6.76,17.34-17.57,31.24-32.42,41.67-14.85,10.42-33.01,15.65-54.47,15.65ZM1192.96,248.2h149.96v-2.64c0-17.66-3.09-32.94-9.26-45.86-6.17-12.95-14.77-23.03-25.8-30.21-11.03-7.24-23.89-10.83-38.59-10.83-15.88,0-29.55,3.59-41.02,10.83-11.47,7.18-20.22,17.4-26.25,30.64-6.03,13.24-9.05,28.8-9.05,46.75v1.32Z"/><path class="cls-1" d="M1478.76,373.02c-7.06,0-12.35-1.84-15.88-5.51-3.53-3.68-5.3-8.9-5.3-15.68v-187.45h-40.13v-15.85h28.23c5.28,0,8.82-1.09,10.58-3.33,1.77-2.18,2.64-5.94,2.64-11.23v-48.96h16.77v63.52h52.05v15.85h-52.05v192.76h48.51v15.88h-45.43Z"/><path class="cls-1" d="M1616.81,81.48c-5.01,0-8.53-1.23-10.58-3.76-2.07-2.47-3.09-5.51-3.09-9.03v-3.96c0-3.53,1.02-6.55,3.09-9.05,2.05-2.5,5.57-3.75,10.58-3.75,5.3,0,8.96,1.25,11.03,3.75,2.05,2.5,3.09,5.51,3.09,9.05v3.96c0,3.52-1.03,6.56-3.09,9.03-2.07,2.53-5.73,3.76-11.03,3.76ZM1607.99,373.02v-224.49h18.08v224.49h-18.08Z"/><path class="cls-1" d="M1877.04,461.24v-123.5h-1.32c-5.59,11.17-14.19,20.73-25.8,28.69-11.62,7.93-26.53,11.89-44.77,11.89-19.12,0-35.66-4.48-49.62-13.44-13.97-8.96-24.69-22.28-32.2-39.91-7.49-17.63-11.24-39.11-11.24-64.41s3.75-46.66,11.24-64.18c7.51-17.49,18.23-30.72,32.2-39.68,13.96-8.96,30.5-13.44,49.62-13.44s33.22,3.91,44.98,11.66c11.76,7.81,20.3,17.43,25.58,28.89h1.32v-35.26h18.09v312.7h-18.09ZM1808.24,362c12.35,0,23.75-2.27,34.19-6.83,10.44-4.54,18.81-11.03,25.14-19.41,6.32-8.38,9.48-18,9.48-28.89v-93.06c0-10.88-3.16-20.36-9.48-28.46-6.33-8.07-14.7-14.47-25.14-19.18s-21.84-7.06-34.19-7.06c-24.41,0-43.3,7.95-56.68,23.83-13.38,15.88-20.06,37.33-20.06,64.38v26.93c0,27.05,6.68,48.41,20.06,64.15,13.38,15.74,32.28,23.6,56.68,23.6Z"/></g></svg>