<?xml version="1.0" encoding="UTF-8" standalone="no"?>
<svg
   viewBox="0 0 4000000 4000000"
   version="1.1"
   id="svg11"
   width="4000000"
   height="4000000"
   xmlns="http://www.w3.org/2000/svg"
   xmlns:svg="http://www.w3.org/2000/svg">
  <defs
     id="defs1">
    <style
       id="style1">.cls-1{letter-spacing:.1em;}.cls-2{letter-spacing:.09em;}.cls-3{letter-spacing:.09em;}.cls-4{fill:#000;font-family:MyriadPro-Regular, 'Myriad Pro';font-size:100px;}.cls-5{fill:#231f20;stroke-width:0px;}.cls-6{letter-spacing:.08em;}</style>
  </defs>
  <g
     id="_1-COLOR_LOGOS"
     transform="matrix(1.1739782,0,0,1.1739782,-173.97849,-173.97833)">
    <path
       class="cls-5"
       d="m 930.53,1329.31 c -152.52,0 -276.61,-124.09 -276.61,-276.61 0,-152.52 124.09,-276.61 276.61,-276.61 152.52,0 276.62,124.09 276.62,276.61 0,152.52 -124.09,276.61 -276.62,276.61 z m 0,-527.82 c -138.52,0 -251.22,112.69 -251.22,251.22 0,138.53 112.69,251.22 251.22,251.22 138.53,0 251.23,-112.69 251.23,-251.22 0,-138.53 -112.71,-251.22 -251.23,-251.22 z"
       id="path7" />
    <path
       class="cls-5"
       d="m 944.46,1481.91 c -267.11,0 -484.41,-196.43 -484.41,-437.88 0,-241.45 217.3,-437.88 484.41,-437.88 267.11,0 484.41,196.43 484.41,437.88 0,241.45 -217.3,437.88 -484.41,437.88 z m 0,-850.36 c -253.1,0 -459.02,185.04 -459.02,412.48 0,227.44 205.92,412.48 459.02,412.48 253.1,0 459.02,-185.04 459.02,-412.48 0,-227.44 -205.92,-412.48 -459.02,-412.48 z"
       id="path8" />
    <path
       class="cls-5"
       d="m 929.57,1617.1 c -97.12,0 -174.82,-29.2 -216.53,-49.13 -44.37,-21.19 -75.13,-46.23 -136.44,-96.1 -104.46,-85.02 -181.97,-175.08 -224.29,-260.6 -14.31,-28.92 -23.14,-52.91 -28.62,-77.81 -5.02,-22.92 -14.27,-85.1 8.02,-167.68 C 373.55,810.89 498.84,685.8 540.02,644.69 640.42,544.47 709.74,481.23 825.44,448.28 v 0 c 82.16,-23.4 175.81,-20.53 263.67,8.02 93.82,30.55 166.82,99.03 312.26,235.43 62.19,58.31 84.61,85.08 96.05,100.13 37.47,49.34 107.21,141.15 109.03,259.81 1.59,103.65 -50.83,179.28 -92.94,240.04 -95.36,137.59 -224.38,201.32 -328.06,252.51 -71.07,35.09 -117.95,58.23 -189.2,68.24 -23.04,3.24 -45.34,4.64 -66.68,4.64 z M 832.38,472.71 c -112.02,31.91 -177.26,92.96 -274.43,189.96 -39.98,39.92 -161.66,161.4 -201.71,309.73 -20.84,77.17 -12.36,134.53 -7.75,155.61 5.08,23.09 13.05,44.63 26.59,72 40.71,82.28 115.89,169.44 217.41,252.05 59.88,48.72 89.86,73.11 131.5,93 48.31,23.08 147.41,59.29 268.74,42.26 67.2,-9.44 110.18,-30.65 181.39,-65.81 106.41,-52.55 226.9,-112.05 318.51,-244.25 42.14,-60.8 89.89,-129.69 88.43,-225.19 -1.7,-110.32 -68.15,-197.82 -103.85,-244.82 -6.29,-8.27 -25.38,-33.41 -93.2,-96.99 C 1241.31,576.42 1169.68,509.25 1081.25,480.46 998.13,453.4 909.77,450.67 832.39,472.71 v 0 z"
       id="path9" />
    <path
       class="cls-5"
       d="m 963.86,1752 c -4.6,0 -9.2,-0.06 -13.85,-0.17 C 716.99,1746.01 548.06,1607.69 475.93,1548.62 359.14,1452.99 272.83,1339.74 219.38,1212 201.76,1169.88 192.09,1146.74 185.56,1112.9 141.11,882.16 344.31,669.82 441.96,567.77 606.32,396.01 736.17,260.37 933.14,248.6 v 0 c 206.3,-12.65 383.45,175.31 735.78,549.13 84.22,89.36 159.16,178.93 151.21,292.02 -6.49,92.36 -65.36,160.86 -171.74,254.94 -304.56,269.39 -460.49,407.3 -684.53,407.31 z M 934.66,273.95 C 747.62,285.11 620.84,417.59 460.33,585.32 365.6,684.3 168.53,890.23 210.52,1108.09 c 6.01,31.27 15.33,53.56 32.25,93.99 51.87,123.98 135.71,233.92 249.26,326.89 70.11,57.41 234.31,191.87 458.62,197.46 221.29,5.53 375.09,-130.25 680.93,-400.76 101.32,-89.62 157.35,-154.05 163.24,-237.7 7.22,-102.83 -64.17,-187.73 -144.36,-272.83 C 1303.54,447.08 1129.5,262.31 934.67,273.95 v 0 z"
       id="path10" />
    <path
       class="cls-5"
       d="m 902.77,1027.72 c 6.06,-7.07 15.21,-10.6 27.5,-10.6 12.29,0 21.33,3.5 27.64,10.48 6.3,6.98 9.46,15.52 9.46,25.61 0,10.09 -3.2,18.26 -9.59,24.98 -6.4,6.73 -15.57,10.09 -27.51,10.09 -11.94,0 -21.24,-3.41 -27.37,-10.22 -6.16,-6.82 -9.21,-15.1 -9.21,-24.86 0,-9.76 3.03,-18.42 9.08,-25.49 z"
       id="path11" />
  </g>
</svg>
